<svg xmlns="http://www.w3.org/2000/svg" version="1.1" viewBox="-5.0 -10.0 110.0 135.0">
 <path d="m48.879 52.891v9.6719h2.25v-9.6719c-0.37109 0.011719-0.75 0.03125-1.1211 0.03125-0.36719 0-0.75781-0.011719-1.1289-0.03125z"/>
 <path d="m48.879 50.609v-16.77l-5.3711-3.7305c-0.51172-0.35938-0.62891-1.0586-0.26953-1.5703 0.33984-0.51172 1.0508-0.64062 1.5586-0.28125l4.0781 2.8516v-6.6992c0-0.60938 0.48828-1.1211 1.1211-1.1211 0.60938 0 1.1211 0.51172 1.1211 1.1211v18.828l8.8281-6.4609c0.48828-0.37109 1.1992-0.25 1.5703 0.23828 0.35938 0.51172 0.25 1.2109-0.23828 1.5703l-10.16 7.4492v4.5898c9.4883-0.57031 17.031-8.4688 17.031-18.109 0.011718-10.438-8.5781-32.516-18.148-32.516s-18.172 22.078-18.172 32.5c0 9.6406 7.5625 17.539 17.051 18.109z"/>
 <path d="m6.9414 64.809h86.121v7.1797h-86.121z"/>
 <path d="m20.789 79.75c-1 0-1.8086 0.80859-1.8086 1.8086s0.80859 1.8086 1.8086 1.8086 1.8281-0.80859 1.8281-1.8086c0.003906-1.0078-0.81641-1.8086-1.8281-1.8086z"/>
 <path d="m13.941 88.578c-1 0-1.8086 0.82031-1.8086 1.8281 0 0.98828 0.80859 1.8086 1.8086 1.8086s1.8086-0.82031 1.8086-1.8086c0.011719-1.0078-0.80078-1.8281-1.8086-1.8281z"/>
 <path d="m27.262 94.391c-1 0-1.8086 0.80859-1.8086 1.8086s0.80859 1.8086 1.8086 1.8086 1.8086-0.80859 1.8086-1.8086-0.80859-1.8086-1.8086-1.8086z"/>
 <path d="m34.648 79.75c-1 0-1.8281 0.80859-1.8281 1.8086s0.82031 1.8086 1.8281 1.8086c0.98828 0 1.8086-0.80859 1.8086-1.8086 0.003907-1.0078-0.81641-1.8086-1.8086-1.8086z"/>
 <path d="m44.539 96.371c-1 0-1.8086 0.80859-1.8086 1.8086s0.80859 1.8086 1.8086 1.8086 1.8086-0.80859 1.8086-1.8086c0.003906-1-0.79688-1.8086-1.8086-1.8086z"/>
 <path d="m50 85.641c-1 0-1.8086 0.80859-1.8086 1.8086s0.80859 1.8086 1.8086 1.8086 1.8086-0.80859 1.8086-1.8086-0.80859-1.8086-1.8086-1.8086z"/>
 <path d="m65.109 77.84c-1 0-1.8281 0.82031-1.8281 1.8086 0 1 0.82031 1.8281 1.8281 1.8281 0.98828 0 1.8086-0.82031 1.8086-1.8281 0.011719-0.97656-0.81641-1.8086-1.8086-1.8086z"/>
 <path d="m72.191 89.75c-1 0-1.8086 0.80859-1.8086 1.8086s0.80859 1.8086 1.8086 1.8086 1.8086-0.80859 1.8086-1.8086c0-1.0078-0.80859-1.8086-1.8086-1.8086z"/>
 <path d="m60.121 96.371c-1 0-1.8086 0.80859-1.8086 1.8086s0.80859 1.8086 1.8086 1.8086 1.8086-0.80859 1.8086-1.8086-0.80859-1.8086-1.8086-1.8086z"/>
 <path d="m84.352 96.371c-1 0-1.8086 0.80859-1.8086 1.8086s0.80859 1.8086 1.8086 1.8086 1.8086-0.80859 1.8086-1.8086-0.80859-1.8086-1.8086-1.8086z"/>
 <path d="m88.102 79.75c-1 0-1.8086 0.80859-1.8086 1.8086s0.80859 1.8086 1.8086 1.8086 1.8281-0.80859 1.8281-1.8086c0-1.0078-0.82813-1.8086-1.8281-1.8086z"/>
<text x="0.0" y="117.5" font-size="5.0" font-weight="bold" font-family="Arbeit Regular, Helvetica, Arial-Unicode, Arial, Sans-serif" fill="#000000">Created by MUHAMAD KHOTIBUL UMAM</text><text x="0.0" y="122.5" font-size="5.0" font-weight="bold" font-family="Arbeit Regular, Helvetica, Arial-Unicode, Arial, Sans-serif" fill="#000000">from Noun Project</text></svg>