<svg xmlns="http://www.w3.org/2000/svg" xmlns:xlink="http://www.w3.org/1999/xlink" version="1.1" x="0px" y="0px" viewBox="0 0 530 662.5" style="enable-background:new 0 0 530 530;" xml:space="preserve"><g><g><g><g><g><path d="M186.249,242.5c-26.881,0-48.75-21.869-48.75-48.75v-52.5c0-26.881,21.869-48.75,48.75-48.75s48.75,21.869,48.75,48.75       v52.5C234.999,220.631,213.13,242.5,186.249,242.5z M186.249,107.5c-18.609,0-33.75,15.14-33.75,33.75v52.5       c0,18.61,15.141,33.75,33.75,33.75s33.75-15.14,33.75-33.75v-52.5C219.999,122.64,204.859,107.5,186.249,107.5z"/></g></g></g><g><g><g><path d="M512.499,520h-495c-4.143,0-7.5-3.357-7.5-7.5V310c0-4.143,3.357-7.5,7.5-7.5h97.5       c64.803,0,129.53,18.28,185.978,54.417c63.028-35.614,134.468-54.417,206.912-54.417h4.61c4.143,0,7.5,3.357,7.5,7.5v202.5       C519.999,516.642,516.642,520,512.499,520z M165.919,505h339.08V317.511C367.502,318.492,239.927,389.047,165.919,505z        M24.999,505h123.253c34.378-56.66,81.921-104.619,138.186-139.477C234.354,333.829,174.896,317.5,114.999,317.5h-90V505z"/></g></g></g><g><g><g><path d="M66.661,242.5c-30.788,0-55.837-25.048-55.837-55.837c0-16.082,6.953-31.294,18.87-41.834       c-1.815-4.612-2.758-9.549-2.758-14.56c0-21.904,17.82-39.725,39.725-39.725s39.726,17.821,39.726,39.725       c0,5.011-0.942,9.949-2.758,14.56c11.917,10.54,18.87,25.751,18.87,41.834C122.499,217.452,97.451,242.5,66.661,242.5z        M66.661,105.543c-13.633,0-24.725,11.092-24.725,24.725c0,4.53,1.234,8.958,3.569,12.806       c2.055,3.386,1.122,7.786-2.129,10.047c-10.991,7.647-17.553,20.186-17.553,33.541c0,22.518,18.319,40.837,40.837,40.837       c22.519,0,40.838-18.32,40.838-40.837c0-13.355-6.563-25.894-17.554-33.541c-3.252-2.262-4.184-6.663-2.128-10.049       c2.335-3.847,3.569-8.274,3.569-12.805C91.387,116.635,80.295,105.543,66.661,105.543z"/></g></g></g><g><g><g><path d="M65.837,317.5c-4.143,0-7.5-3.357-7.5-7.5V197.5c0-4.142,3.357-7.5,7.5-7.5s7.5,3.358,7.5,7.5V310       C73.337,314.142,69.98,317.5,65.837,317.5z"/></g></g></g><g><g><g><path d="M186.249,324.099c-4.143,0-7.5-3.357-7.5-7.5V197.5c0-4.142,3.357-7.5,7.5-7.5s7.5,3.358,7.5,7.5v119.1       C193.749,320.742,190.392,324.099,186.249,324.099z"/></g></g></g><g><g><g><path d="M426.537,102.885h-60.576c-18.451,0-33.462-15.011-33.462-33.461c0-12.661,7.146-24.107,18.185-29.772       C354.411,22.461,369.551,10,387.596,10c16.792,0,31.043,10.763,35.957,26.093c19.611-1.742,36.446,13.751,36.446,33.33       C459.999,87.874,444.989,102.885,426.537,102.885z M387.596,25c-11.818,0-21.569,8.858-22.682,20.604       c-0.277,2.922-2.234,5.415-5.008,6.378c-7.421,2.576-12.407,9.585-12.407,17.441c0,10.18,8.282,18.461,18.462,18.461h60.576       c10.18,0,18.462-8.282,18.462-18.461c0-12.758-12.709-21.694-24.711-17.376c-4.615,1.657-9.559-1.489-10.007-6.373       C409.202,33.888,399.449,25,387.596,25z"/></g></g></g><g><g><g><path d="M252.999,518.5c-3.313-2.485-3.985-7.187-1.5-10.5c57.947-77.264,149.172-123,246-123h15c4.143,0,7.5,3.357,7.5,7.5       s-3.357,7.5-7.5,7.5h-15c-91.577,0-179.054,43.738-234,117C261.032,520.29,256.336,521.001,252.999,518.5z"/></g></g></g><g><g><g><path d="M219.203,334.001c-5.717,0-9.388-6.23-6.488-11.251l113.45-196.5c2.881-4.989,10.104-4.998,12.99,0       c0.06,0.103,107.048,185.43,107.17,185.641c2.071,3.587,0.842,8.174-2.746,10.244c-3.585,2.07-8.174,0.843-10.244-2.746       C433.236,319.218,332.848,145.327,332.66,145L225.704,330.25C224.316,332.656,221.794,334.001,219.203,334.001z"/></g></g></g><g><g><g><path d="M506.004,313.75L429.309,180.9l-31.465,54.5c-2.07,3.586-6.657,4.815-10.245,2.745       c-3.587-2.071-4.816-6.658-2.745-10.245l37.96-65.75c1.34-2.32,3.815-3.75,6.495-3.75l0,0c2.68,0,5.155,1.43,6.495,3.75       l83.19,144.1c2.071,3.588,0.842,8.175-2.745,10.245C512.666,318.562,508.078,317.342,506.004,313.75z"/></g></g></g></g></g><text x="0" y="545" fill="#000000" font-size="5px" font-weight="bold" font-family="'Helvetica Neue', Helvetica, Arial-Unicode, Arial, Sans-serif">Created by Icogenix</text><text x="0" y="550" fill="#000000" font-size="5px" font-weight="bold" font-family="'Helvetica Neue', Helvetica, Arial-Unicode, Arial, Sans-serif">from the Noun Project</text></svg>