<svg xmlns="http://www.w3.org/2000/svg" viewBox="0 0 100 125" x="0px" y="0px"><defs><style>.cls-1{stroke-width:0px;}</style></defs><path class="cls-1" d="m4.96,41.87s0,0-.01,0c-2.03,0-1.57,2.53-1.57,2.53v51.83l89.04-.02c-14.34-31.73-50.6-53.38-87.45-54.35Z"/><path class="cls-1" d="m94.6,34.99s0,0-.01,0c-16.21.47-32.31,5.16-46.6,13.13,21.11,9.69,38.73,25.66,48.24,45.03v-55.31s.48-2.85-1.63-2.85Z"/><path class="cls-1" d="m33.07,27.01c1.46,2.44,4.12,3.88,6.92,3.88.52,0,1.04-.05,1.57-.15,3.66-.72,6.34-4.01,6.38-7.84-.04-3.36-2.09-6.3-5.24-7.5-3.11-1.18-6.77-.2-8.89,2.38-2.17,2.64-2.46,6.35-.73,9.23Z"/><path class="cls-1" d="m39.9,11.3s.05,0,.07,0c.95-.04,1.7-.8,1.7-1.73v-4.08c0-.47-.2-.92-.55-1.26-.34-.32-.75-.5-1.21-.47-.95.04-1.7.8-1.7,1.73v4.08c0,.47.2.93.55,1.26.32.31.72.47,1.14.47Z"/><path class="cls-1" d="m39.91,34.52h0c-.95.04-1.7.8-1.7,1.73v4.08c0,.47.2.92.55,1.26.32.31.72.47,1.14.47.02,0,.05,0,.07,0,.95-.04,1.7-.8,1.7-1.73v-4.08c0-.47-.2-.92-.55-1.26-.34-.32-.77-.5-1.21-.47Z"/><path class="cls-1" d="m29.22,14.78c.32.32.77.5,1.24.5.01,0,.03,0,.05,0,.46-.01.88-.2,1.18-.52.65-.71.64-1.77-.03-2.43l-2.91-2.86c-.33-.33-.78-.5-1.28-.5-.46.01-.88.2-1.18.52-.65.71-.64,1.77.03,2.43l2.91,2.86Z"/><path class="cls-1" d="m49.39,30.54c-.46.01-.88.2-1.18.52-.65.71-.64,1.77.03,2.43l2.91,2.86c.32.32.77.5,1.24.5.01,0,.03,0,.05,0,.46-.01.88-.2,1.18-.52.65-.71.64-1.77-.03-2.43l-2.91-2.86c-.33-.33-.78-.51-1.28-.5Z"/><path class="cls-1" d="m49.31,15.13c.44,0,.88-.17,1.21-.51l2.86-2.91c.33-.33.51-.8.5-1.28-.01-.46-.2-.88-.52-1.18-.71-.65-1.77-.64-2.43.03l-2.86,2.91c-.33.33-.51.8-.5,1.28.01.46.2.88.52,1.18.35.32.78.48,1.21.48Z"/><path class="cls-1" d="m29.36,31.2l-2.86,2.91c-.33.33-.51.8-.5,1.28.01.46.2.88.52,1.18.35.32.78.48,1.21.48s.88-.17,1.21-.51l2.86-2.91c.33-.33.51-.8.5-1.28-.01-.46-.2-.88-.52-1.18-.71-.65-1.77-.64-2.43.03Z"/><path class="cls-1" d="m52.02,21.73c-.32.34-.49.77-.47,1.21.04.95.8,1.7,1.73,1.7h4.08c.47,0,.92-.2,1.26-.55.32-.34.49-.77.47-1.21-.04-.95-.8-1.69-1.73-1.69h-4.08c-.47,0-.92.2-1.26.55Z"/><path class="cls-1" d="m22.53,24.64h4.08c.47,0,.92-.2,1.26-.55.32-.34.49-.77.47-1.21-.04-.95-.8-1.7-1.73-1.7h-4.08c-.47,0-.93.2-1.26.55-.32.34-.49.77-.47,1.21.04.95.8,1.69,1.73,1.69Z"/><text x="0" y="115" fill="#000000" font-size="5px" font-weight="bold" font-family="'Helvetica Neue', Helvetica, Arial-Unicode, Arial, Sans-serif">Created by Lulah</text><text x="0" y="120" fill="#000000" font-size="5px" font-weight="bold" font-family="'Helvetica Neue', Helvetica, Arial-Unicode, Arial, Sans-serif">from the Noun Project</text></svg>