<svg xmlns="http://www.w3.org/2000/svg" version="1.1" viewBox="-5.0 -10.0 110.0 135.0">
 <path d="m9.7344 87.5-0.23438 3.1367c3.3867 0.070312 6.125 2.832 6.125 6.2383v1.5625c0 0.86328-0.69922 1.5625-1.5625 1.5625h-12.5c-0.86328 0-1.5625-0.69922-1.5625-1.5625v-1.5625c0-3.4453 2.8047-6.25 6.25-6.25h0.10938l0.32812-4.25v-0.03125l1.0156-13.094 12.156 9.1875zm41.828 3.125v-4.6875h-3.125v4.6875c-3.4453 0-6.25 2.8047-6.25 6.25v1.5625c0 0.86328 0.69922 1.5625 1.5625 1.5625h12.5c0.86328 0 1.5625-0.69922 1.5625-1.5625v-1.5625c0-3.4453-2.8047-6.25-6.25-6.25zm42.188 0h-0.10938l-0.32812-4.25v-0.03125l-1.0156-13.094-12.156 9.1875 10.125 5.0625 0.23438 3.1367c-3.3867 0.070312-6.125 2.832-6.125 6.2383v1.5625c0 0.86328 0.69922 1.5625 1.5625 1.5625h12.5c0.86328 0 1.5625-0.69922 1.5625-1.5625v-1.5625c0-3.4453-2.8047-6.25-6.25-6.25zm-70.312-20.312v-9.375h-2.875l-11.641 9.3125 14.047 10.625 6.3281-3.1562-5.4844-6.3906c-0.23438-0.28125-0.375-0.64062-0.375-1.0156zm18.938-9.375h-15.812v8.7969l8.5312 9.9531h9.625zm9.375 21.875 2.7344-21.875h-8.9688l2.7344 21.875zm21.688-21.875h-15.812l-2.3438 18.75h9.625l8.5312-9.9531zm-56.25-3.125h65.625c0.86328 0 1.5625-0.69922 1.5625-1.5625v-4.6875c0-0.86328-0.69922-1.5625-1.5625-1.5625h-65.625c-0.86328 0-1.5625 0.69922-1.5625 1.5625v4.6875c0 0.86328 0.69922 1.5625 1.5625 1.5625zm62.25 3.125h-2.875v9.375c0 0.375-0.14062 0.73438-0.375 1.0156l-5.4844 6.3906 6.3281 3.1562 14.047-10.625zm-24-45.414-7.457 7.457c-0.30469 0.30469-0.70312 0.45703-1.1055 0.45703-0.39844 0-0.80078-0.15234-1.1055-0.45703-0.60938-0.60938-0.60938-1.5977 0-2.2109l6.4727-6.4727c-0.72656-0.15234-1.4766-0.23438-2.2461-0.23438-6.0312 0-10.938 4.9062-10.938 10.938 0 4.0508 2.2188 7.5859 5.5 9.4766l10.582-10.582c0.60938-0.60938 1.5977-0.60938 2.2109 0 0.60938 0.60938 0.60938 1.5977 0 2.2109l-9.5977 9.5977c0.72656 0.15234 1.4766 0.23438 2.2461 0.23438 6.0312 0 10.938-4.9062 10.938-10.938 0-4.0508-2.2188-7.5859-5.5-9.4766zm21.125 31.352h-53.125v-7.0938c0-17.188 10.188-32.75 25.938-39.656 0.39062-0.17188 0.85938-0.17188 1.25 0 15.75 6.9062 25.938 22.469 25.938 39.656zm-40.625-6.25c0-0.86328-0.69922-1.5625-1.5625-1.5625h-3.125c-0.86328 0-1.5625 0.69922-1.5625 1.5625s0.69922 1.5625 1.5625 1.5625h3.125c0.86328 0 1.5625-0.69922 1.5625-1.5625zm28.125-15.625c0-7.7539-6.3086-14.062-14.062-14.062s-14.062 6.3086-14.062 14.062 6.3086 14.062 14.062 14.062 14.062-6.3086 14.062-14.062zm6.25 15.625c0-0.86328-0.69922-1.5625-1.5625-1.5625h-3.125c-0.86328 0-1.5625 0.69922-1.5625 1.5625s0.69922 1.5625 1.5625 1.5625h3.125c0.86328 0 1.5625-0.69922 1.5625-1.5625z"/>
<text x="0.0" y="117.5" font-size="5.0" font-weight="bold" font-family="Arbeit Regular, Helvetica, Arial-Unicode, Arial, Sans-serif" fill="#000000">Created by Kmg Design</text><text x="0.0" y="122.5" font-size="5.0" font-weight="bold" font-family="Arbeit Regular, Helvetica, Arial-Unicode, Arial, Sans-serif" fill="#000000">from Noun Project</text></svg>